<svg width="21" height="15" viewBox="0 0 21 15" fill="none" xmlns="http://www.w3.org/2000/svg">
<path d="M15.2158 2.8114H18.0272L20.8386 6.61241V12.1827H18.9315C18.8201 12.9646 18.4304 13.68 17.8339 14.1975C17.2373 14.7151 16.4741 15 15.6844 15C14.8946 15 14.1314 14.7151 13.5349 14.1975C12.9384 13.68 12.5486 12.9646 12.4372 12.1827H7.68594C7.57454 12.9646 7.18478 13.68 6.58826 14.1975C5.99174 14.7151 5.22852 15 4.43878 15C3.64904 15 2.88582 14.7151 2.2893 14.1975C1.69278 13.68 1.30302 12.9646 1.19161 12.1827H0.22168V0.937133C0.22168 0.68859 0.320413 0.450227 0.49616 0.27448C0.671906 0.0987336 0.91027 0 1.15881 0H14.2787C14.5272 0 14.7656 0.0987336 14.9413 0.27448C15.1171 0.450227 15.2158 0.68859 15.2158 0.937133V2.8114ZM15.2158 4.68567V7.49707H18.9643V7.22998L17.0826 4.68567H15.2158Z" fill="#666666"/>
</svg>
