<svg width="19" height="15" viewBox="0 0 19 15" fill="none" xmlns="http://www.w3.org/2000/svg">
<path d="M18.2217 5.83333V14.1667C18.2217 14.3877 18.1269 14.5996 17.9581 14.7559C17.7893 14.9122 17.5604 15 17.3217 15H1.12168C0.882985 15 0.654066 14.9122 0.485284 14.7559C0.316501 14.5996 0.22168 14.3877 0.22168 14.1667V5.83333H18.2217ZM18.2217 4.16667H0.22168V0.833333C0.22168 0.61232 0.316501 0.400358 0.485284 0.244078C0.654066 0.0877973 0.882985 0 1.12168 0H17.3217C17.5604 0 17.7893 0.0877973 17.9581 0.244078C18.1269 0.400358 18.2217 0.61232 18.2217 0.833333V4.16667ZM11.9217 10.8333V12.5H15.5217V10.8333H11.9217Z" fill="#666666"/>
</svg>
