<svg width="18" height="15" viewBox="0 0 18 15" fill="none" xmlns="http://www.w3.org/2000/svg">
<g clip-path="url(#clip0_1_5)">
<path d="M11.2743 4.88266e-06C11.8287 -6.10874e-05 12.3734 0.145846 12.8536 0.423055C13.3337 0.700265 13.7325 1.09901 14.0096 1.57918C14.2868 2.05936 14.4327 2.60405 14.4326 3.15849C14.4325 3.71292 14.2864 4.25756 14.009 4.73764L17.5901 4.73685V6.31579H16.0111V14.2105C16.0111 14.4199 15.928 14.6207 15.7799 14.7688C15.6319 14.9168 15.4311 15 15.2217 15H2.5901C2.38072 15 2.17991 14.9168 2.03186 14.7688C1.8838 14.6207 1.80063 14.4199 1.80063 14.2105V6.31579H0.22168V4.73685L3.80273 4.73764C3.41104 4.05939 3.28538 3.25979 3.45014 2.49409C3.6149 1.72839 4.05832 1.05124 4.69431 0.594125C5.3303 0.137008 6.11347 -0.0674559 6.89174 0.0204354C7.67002 0.108327 8.38786 0.482301 8.90589 1.06974C9.20162 0.732937 9.56594 0.463247 9.97442 0.278751C10.3829 0.0942541 10.8261 -0.000784933 11.2743 4.88266e-06ZM9.69536 6.31579H8.11641V14.2105H9.69536V6.31579ZM6.53747 1.57895C6.12774 1.57712 5.73335 1.73463 5.43761 2.0182C5.14187 2.30177 4.96794 2.6892 4.95257 3.09864C4.93719 3.50808 5.08158 3.90746 5.35522 4.21241C5.62887 4.51736 6.01034 4.704 6.41905 4.7329L6.53747 4.73685H8.11641V3.1579C8.11643 2.78058 7.98133 2.41573 7.73557 2.12942C7.48981 1.84311 7.14964 1.65427 6.77668 1.59711L6.6551 1.5829L6.53747 1.57895ZM11.2743 1.57895C10.876 1.57883 10.4923 1.72927 10.2002 2.00013C9.9081 2.27099 9.72919 2.64225 9.69931 3.03948L9.69536 3.1579V4.73685H11.2743C11.6727 4.73697 12.0563 4.58652 12.3484 4.31566C12.6405 4.0448 12.8194 3.67355 12.8493 3.27632L12.8533 3.1579C12.8533 2.73914 12.6869 2.33752 12.3908 2.04141C12.0947 1.7453 11.6931 1.57895 11.2743 1.57895Z" fill="#5B5858"/>
</g>
<defs>
<clipPath id="clip0_1_5">
<rect width="18" height="15" fill="white"/>
</clipPath>
</defs>
</svg>
