<svg width="16" height="15" viewBox="0 0 16 15" fill="none" xmlns="http://www.w3.org/2000/svg">
<path d="M0.22168 15C0.22168 13.4845 0.823719 12.031 1.89536 10.9594C2.96699 9.88775 4.42044 9.28571 5.93597 9.28571C7.45149 9.28571 8.90494 9.88775 9.97658 10.9594C11.0482 12.031 11.6503 13.4845 11.6503 15H0.22168ZM5.93597 8.57143C3.56811 8.57143 1.65025 6.65357 1.65025 4.28571C1.65025 1.91786 3.56811 0 5.93597 0C8.30382 0 10.2217 1.91786 10.2217 4.28571C10.2217 6.65357 8.30382 8.57143 5.93597 8.57143ZM13.0788 11.4286H15.936V12.8571H13.0788V11.4286ZM10.936 7.85714H15.936V9.28571H10.936V7.85714ZM12.3645 4.28571H15.936V5.71429H12.3645V4.28571Z" fill="#666666"/>
</svg>
