<svg width="16" height="16" viewBox="0 0 16 16" fill="none" xmlns="http://www.w3.org/2000/svg">
<path fill-rule="evenodd" clip-rule="evenodd" d="M5.11474 0.408281C5.91451 0.371463 6.16951 0.363281 8.20679 0.363281C10.2441 0.363281 10.4991 0.372145 11.2982 0.408281C12.0972 0.444418 12.6427 0.571918 13.12 0.75669C13.6197 0.945554 14.0732 1.24078 14.4482 1.6226C14.83 1.99692 15.1245 2.44965 15.3127 2.9501C15.4982 3.42737 15.625 3.97283 15.6618 4.77055C15.6986 5.57169 15.7068 5.82669 15.7068 7.86328C15.7068 9.90055 15.6979 10.1556 15.6618 10.9553C15.6257 11.7531 15.4982 12.2985 15.3127 12.7758C15.1245 13.2763 14.8295 13.7298 14.4482 14.1046C14.0732 14.4865 13.6197 14.781 13.12 14.9692C12.6427 15.1546 12.0972 15.2815 11.2995 15.3183C10.4991 15.3551 10.2441 15.3633 8.20679 15.3633C6.16951 15.3633 5.91451 15.3544 5.11474 15.3183C4.31701 15.2821 3.77156 15.1546 3.29429 14.9692C2.79378 14.781 2.3403 14.486 1.96542 14.1046C1.58386 13.7301 1.28859 13.2768 1.1002 12.7765C0.915423 12.2992 0.788605 11.7537 0.751787 10.956C0.714969 10.1549 0.706787 9.89987 0.706787 7.86328C0.706787 5.82601 0.715651 5.57101 0.751787 4.77192C0.787923 3.97283 0.915423 3.42737 1.1002 2.9501C1.28887 2.4497 1.58437 1.99645 1.96611 1.62192C2.34045 1.24044 2.79347 0.945175 3.29361 0.75669C3.77088 0.571918 4.31633 0.445099 5.11406 0.408281H5.11474ZM11.2375 1.75828C10.4466 1.72214 10.2093 1.71465 8.20679 1.71465C6.20429 1.71465 5.96701 1.72214 5.17611 1.75828C4.44451 1.79169 4.0477 1.91374 3.78315 2.01669C3.43338 2.15305 3.18315 2.31465 2.92065 2.57715C2.67182 2.81923 2.48032 3.11393 2.3602 3.43965C2.25724 3.70419 2.1352 4.10101 2.10179 4.8326C2.06565 5.62351 2.05815 5.86078 2.05815 7.86328C2.05815 9.86578 2.06565 10.1031 2.10179 10.894C2.1352 11.6256 2.25724 12.0224 2.3602 12.2869C2.4802 12.6121 2.67179 12.9074 2.92065 13.1494C3.1627 13.3983 3.45792 13.5899 3.78315 13.7099C4.0477 13.8128 4.44451 13.9349 5.17611 13.9683C5.96701 14.0044 6.20361 14.0119 8.20679 14.0119C10.21 14.0119 10.4466 14.0044 11.2375 13.9683C11.9691 13.9349 12.3659 13.8128 12.6304 13.7099C12.9802 13.5735 13.2304 13.4119 13.4929 13.1494C13.7418 12.9074 13.9334 12.6121 14.0534 12.2869C14.1563 12.0224 14.2784 11.6256 14.3118 10.894C14.3479 10.1031 14.3554 9.86578 14.3554 7.86328C14.3554 5.86078 14.3479 5.62351 14.3118 4.8326C14.2784 4.10101 14.1563 3.70419 14.0534 3.43965C13.917 3.08987 13.7554 2.83965 13.4929 2.57715C13.2508 2.32833 12.9561 2.13683 12.6304 2.01669C12.3659 1.91374 11.9691 1.79169 11.2375 1.75828ZM7.24883 10.1753C7.78383 10.398 8.37955 10.4281 8.93424 10.2604C9.48893 10.0926 9.96819 9.73754 10.2902 9.25572C10.6121 8.7739 10.7568 8.19524 10.6995 7.61858C10.6423 7.04192 10.3866 6.50304 9.97611 6.09396C9.71445 5.83247 9.39807 5.63224 9.04974 5.5077C8.70141 5.38316 8.32981 5.33739 7.96167 5.3737C7.59353 5.41001 7.23803 5.52749 6.92074 5.71769C6.60346 5.90788 6.33229 6.16606 6.12677 6.47363C5.92124 6.78121 5.78646 7.13052 5.73214 7.49644C5.67782 7.86235 5.7053 8.23575 5.81261 8.58977C5.91992 8.94379 6.10439 9.26961 6.35273 9.54377C6.60108 9.81794 6.90712 10.0336 7.24883 10.1753ZM5.48088 5.13737C5.83885 4.7794 6.26382 4.49544 6.73154 4.30171C7.19925 4.10798 7.70054 4.00826 8.20679 4.00826C8.71304 4.00826 9.21433 4.10798 9.68204 4.30171C10.1498 4.49544 10.5747 4.7794 10.9327 5.13737C11.2907 5.49534 11.5746 5.92032 11.7684 6.38803C11.9621 6.85574 12.0618 7.35703 12.0618 7.86328C12.0618 8.36953 11.9621 8.87082 11.7684 9.33853C11.5746 9.80624 11.2907 10.2312 10.9327 10.5892C10.2097 11.3121 9.2292 11.7183 8.20679 11.7183C7.18437 11.7183 6.20383 11.3121 5.48088 10.5892C4.75792 9.86623 4.35177 8.8857 4.35177 7.86328C4.35177 6.84087 4.75792 5.86033 5.48088 5.13737ZM12.9168 4.58237C13.0055 4.49869 13.0765 4.39806 13.1256 4.28645C13.1748 4.17483 13.201 4.05449 13.2028 3.93255C13.2045 3.81062 13.1818 3.68956 13.136 3.57656C13.0901 3.46356 13.0221 3.3609 12.9359 3.27467C12.8496 3.18844 12.747 3.12039 12.634 3.07454C12.521 3.0287 12.3999 3.00599 12.278 3.00777C12.156 3.00955 12.0357 3.03577 11.9241 3.08489C11.8125 3.13401 11.7118 3.20503 11.6282 3.29374C11.4654 3.46626 11.3763 3.69541 11.3798 3.93255C11.3832 4.16969 11.479 4.39615 11.6467 4.56386C11.8144 4.73156 12.0408 4.8273 12.278 4.83076C12.5151 4.83422 12.7443 4.74512 12.9168 4.58237Z" fill="#666666"/>
</svg>
