<svg width="16" height="16" viewBox="0 0 16 16" fill="none" xmlns="http://www.w3.org/2000/svg">
<path fill-rule="evenodd" clip-rule="evenodd" d="M0.706787 1.61646C0.706787 1.2841 0.838819 0.965348 1.07384 0.730331C1.30885 0.495314 1.6276 0.363283 1.95997 0.363283H14.4522C14.617 0.363014 14.7801 0.395235 14.9323 0.458101C15.0846 0.520967 15.2229 0.613244 15.3395 0.729649C15.456 0.846053 15.5484 0.984299 15.6114 1.13647C15.6745 1.28864 15.7069 1.45175 15.7068 1.61646V14.1087C15.707 14.2735 15.6747 14.4366 15.6117 14.5889C15.5488 14.7411 15.4564 14.8795 15.34 14.996C15.2235 15.1125 15.0852 15.2049 14.933 15.268C14.7808 15.331 14.6177 15.3634 14.4529 15.3633H1.95997C1.79534 15.3633 1.63233 15.3308 1.48024 15.2678C1.32815 15.2048 1.18997 15.1124 1.07359 14.996C0.957217 14.8796 0.864923 14.7413 0.801984 14.5892C0.739046 14.4371 0.706698 14.274 0.706787 14.1094V1.61646ZM6.64406 6.08237H8.6752V7.10237C8.96838 6.51601 9.71838 5.98828 10.8454 5.98828C13.0061 5.98828 13.5182 7.15624 13.5182 9.29919V13.2687H11.3316V9.78737C11.3316 8.56692 11.0384 7.87828 10.2938 7.87828C9.26088 7.87828 8.83133 8.62078 8.83133 9.78737V13.2687H6.64406V6.08237ZM2.89406 13.1753H5.08133V5.98828H2.89406V13.1746V13.1753ZM5.39429 3.64419C5.39841 3.83147 5.36509 4.01768 5.29627 4.19191C5.22745 4.36613 5.12453 4.52485 4.99354 4.65876C4.86255 4.79267 4.70613 4.89906 4.53346 4.9717C4.3608 5.04433 4.17536 5.08175 3.98804 5.08175C3.80071 5.08175 3.61528 5.04433 3.44261 4.9717C3.26995 4.89906 3.11353 4.79267 2.98254 4.65876C2.85155 4.52485 2.74862 4.36613 2.67981 4.19191C2.61099 4.01768 2.57766 3.83147 2.58179 3.64419C2.58988 3.27659 2.7416 2.92678 3.00444 2.66966C3.26728 2.41254 3.62035 2.26857 3.98804 2.26857C4.35573 2.26857 4.7088 2.41254 4.97164 2.66966C5.23448 2.92678 5.38619 3.27659 5.39429 3.64419Z" fill="#023047"/>
</svg>
