<svg width="19" height="16" viewBox="0 0 19 16" fill="none" xmlns="http://www.w3.org/2000/svg">
<path d="M18.7068 2.14255C18.0282 2.44323 17.2993 2.64639 16.533 2.73821C17.3237 2.26509 17.9152 1.52046 18.1972 0.643248C17.4544 1.0845 16.6413 1.39509 15.7935 1.56152C15.2233 0.952752 14.4681 0.549248 13.6451 0.413658C12.8222 0.278069 11.9774 0.417979 11.2421 0.811668C10.5068 1.20536 9.92202 1.8308 9.57859 2.59089C9.23515 3.35098 9.15226 4.20319 9.3428 5.01521C7.83755 4.93963 6.36501 4.54839 5.02075 3.86688C3.67649 3.18537 2.49055 2.22883 1.5399 1.05932C1.21485 1.62003 1.02794 2.27014 1.02794 2.9625C1.02758 3.58579 1.18107 4.19953 1.47479 4.74926C1.76851 5.299 2.19339 5.76774 2.71172 6.11389C2.11059 6.09476 1.52273 5.93234 0.997061 5.64013V5.68888C0.997 6.56307 1.29939 7.41035 1.85291 8.08696C2.40644 8.76357 3.17701 9.22784 4.03387 9.40099C3.47623 9.55191 2.89158 9.57414 2.32409 9.466C2.56585 10.2182 3.03676 10.8759 3.67092 11.3472C4.30508 11.8184 5.07072 12.0796 5.86067 12.0941C4.51969 13.1467 2.86359 13.7178 1.15877 13.7153C0.856785 13.7153 0.55505 13.6977 0.255127 13.6624C1.98561 14.7751 4.00001 15.3656 6.05732 15.3633C13.0216 15.3633 16.8288 9.59521 16.8288 4.59264C16.8288 4.43012 16.8247 4.26596 16.8174 4.10344C17.5579 3.56789 18.1972 2.90472 18.7051 2.14499L18.7068 2.14255Z" fill="#666666"/>
</svg>
