<svg width="19" height="20" viewBox="0 0 19 20" fill="none" xmlns="http://www.w3.org/2000/svg">
<path d="M17.2217 20H1.22168C0.956463 20 0.702109 19.8946 0.514573 19.7071C0.327036 19.5196 0.22168 19.2652 0.22168 19V1C0.22168 0.734784 0.327036 0.48043 0.514573 0.292893C0.702109 0.105357 0.956463 0 1.22168 0H17.2217C17.4869 0 17.7413 0.105357 17.9288 0.292893C18.1163 0.48043 18.2217 0.734784 18.2217 1V19C18.2217 19.2652 18.1163 19.5196 17.9288 19.7071C17.7413 19.8946 17.4869 20 17.2217 20ZM16.2217 18V2H2.22168V18H16.2217ZM6.22168 4V6C6.22168 6.79565 6.53775 7.55871 7.10036 8.12132C7.66297 8.68393 8.42603 9 9.22168 9C10.0173 9 10.7804 8.68393 11.343 8.12132C11.9056 7.55871 12.2217 6.79565 12.2217 6V4H14.2217V6C14.2217 7.32608 13.6949 8.59785 12.7572 9.53553C11.8195 10.4732 10.5478 11 9.22168 11C7.8956 11 6.62383 10.4732 5.68615 9.53553C4.74846 8.59785 4.22168 7.32608 4.22168 6V4H6.22168Z" fill="#023047"/>
</svg>
