<svg width="63" height="62" viewBox="0 0 63 62" fill="none" xmlns="http://www.w3.org/2000/svg">
<g filter="url(#filter0_d_306_445)">
<circle cx="31.2217" cy="31" r="20" fill="white"/>
</g>
<path d="M28.5393 39.6178C26.5462 38.873 24.8696 37.7766 24.34 35.5157C24.0306 34.1933 24.3662 32.9326 24.905 31.7257C25.1132 31.2594 25.339 30.7937 25.618 30.3682C26.0725 29.6751 26.4308 28.9468 26.6205 28.136C26.6857 27.7564 26.714 27.3776 26.6085 27.0001C26.5391 26.9463 26.537 26.8523 26.5745 26.8093C26.6659 26.7052 26.7494 26.8243 26.816 26.8638C27.9891 27.5555 28.5364 28.7889 28.2809 30.1436C28.2766 30.1666 28.2801 30.191 28.2801 30.2139C28.7963 29.7181 29.1758 28.1302 29.1036 26.6407C29.0413 25.3549 28.6157 24.1695 28.0451 23.0408C28.1152 22.9641 28.1697 23.015 28.2143 23.0372C29.6877 23.7806 31.0053 24.7306 32.0235 26.0587C32.8858 27.1831 33.3453 28.4467 33.2363 29.9068C33.8898 28.2443 34.8343 26.8624 36.615 26.1857C36.501 26.6191 36.3913 27.003 36.2992 27.3912C36.045 28.461 36.0542 29.4842 36.5208 30.5325C37.2027 32.0637 37.5106 33.6889 37.3237 35.3851C37.0872 37.5298 35.6889 39.2016 33.6293 39.9421C33.2774 39.927 32.9255 39.9428 32.5736 39.9342C32.4985 39.9321 32.3881 39.9751 32.3633 39.8668C32.3435 39.7807 32.4228 39.7161 32.4922 39.6694C32.7272 39.5116 32.9581 39.3523 33.1457 39.1313C33.7843 38.3779 33.7723 37.4989 33.637 36.5956C33.6109 36.4198 33.5585 36.2476 33.5046 36.0775C33.1882 35.3578 33.0409 34.621 33.3404 33.8453C33.1464 33.8209 33.0664 33.935 32.9658 34.0053C32.6062 34.2399 32.3945 34.5994 32.1778 34.9553C32.124 35.0436 32.0851 35.1792 31.9612 35.1569C31.8613 35.139 31.8585 35.0091 31.8344 34.9187C31.5045 33.691 30.9395 32.995 29.7047 32.3378C29.8725 32.7095 29.9851 33.0489 30.0573 33.4012C30.1776 33.9888 30.1359 34.5643 29.9249 35.1247C29.8845 35.2316 29.8392 35.3909 29.7061 35.3708C29.5666 35.3492 29.5921 35.1828 29.5822 35.0701C29.5447 34.6525 29.3436 34.3311 28.9846 34.0218C29.0328 34.7436 28.6844 35.2725 28.3623 35.8199C28.101 36.2634 27.9325 36.747 27.8999 37.2722C27.8631 37.8584 28.004 38.3822 28.4125 38.8156C28.5591 38.9706 28.7191 39.1126 28.8402 39.292C28.8933 39.3925 29.0321 39.4958 28.9549 39.602C28.8487 39.7498 28.6816 39.6393 28.5393 39.6178Z" fill="#E40D0E"/>
<path d="M33.5698 36.0216C33.9266 37.1324 34.0024 38.2108 33.2235 39.1945C32.9991 39.478 32.6826 39.6408 32.4029 39.9422C32.8129 39.9422 33.2228 39.9422 33.6314 39.9422C32.2514 39.9551 30.8729 40.0132 29.4951 39.935C29.5744 39.7384 29.7089 39.892 29.7889 39.8633C29.4066 39.8016 29.0483 39.6215 28.7651 39.3022C28.1541 38.7949 27.7406 38.1857 27.7951 37.3412C27.8376 36.6811 28.0706 36.0841 28.4239 35.5388C28.7481 35.0386 28.974 34.5184 28.8635 33.844C29.4455 34.2063 29.7238 34.6705 29.7181 35.3142C30.2413 34.2544 30.0417 33.2312 29.5496 32.2195C30.5295 32.3522 31.6815 33.7335 31.9795 35.147C32.2316 34.6763 32.4652 34.2192 32.9134 33.9394C33.3035 33.8397 33.3517 33.8755 33.2653 34.2357C33.1117 34.8772 33.2476 35.4648 33.5698 36.0216Z" fill="#EDE41C"/>
<path d="M28.7644 39.302C29.1297 39.5051 29.4859 39.7289 29.9199 39.8552C29.7641 39.965 29.6204 39.8947 29.4944 39.9349C29.1701 39.848 28.8373 39.7878 28.5392 39.6177C28.6561 39.6177 28.7729 39.6177 28.8904 39.6177C28.9393 39.4613 28.7481 39.4261 28.7644 39.302Z" fill="#CE220E"/>
<path d="M26.6092 27C26.7805 27.3767 26.7508 27.7556 26.6212 28.1358C26.624 27.757 26.6687 27.3781 26.6092 27Z" fill="#C53234"/>
<path d="M33.5698 36.0216C33.2689 35.6147 33.082 35.1727 33.1592 34.6497C33.1762 34.5341 33.1747 34.41 33.2179 34.3052C33.3581 33.9659 33.1691 33.9285 32.9128 33.9393C33.0487 33.7793 33.23 33.7119 33.4608 33.6501C33.3985 33.9336 33.3539 34.1876 33.2859 34.4344C33.1259 35.012 33.4374 35.4992 33.5698 36.0216Z" fill="#F6CB34"/>
<defs>
<filter id="filter0_d_306_445" x="0.22168" y="0" width="62" height="62" filterUnits="userSpaceOnUse" color-interpolation-filters="sRGB">
<feFlood flood-opacity="0" result="BackgroundImageFix"/>
<feColorMatrix in="SourceAlpha" type="matrix" values="0 0 0 0 0 0 0 0 0 0 0 0 0 0 0 0 0 0 127 0" result="hardAlpha"/>
<feOffset/>
<feGaussianBlur stdDeviation="5.5"/>
<feComposite in2="hardAlpha" operator="out"/>
<feColorMatrix type="matrix" values="0 0 0 0 0 0 0 0 0 0 0 0 0 0 0 0 0 0 0.25 0"/>
<feBlend mode="normal" in2="BackgroundImageFix" result="effect1_dropShadow_306_445"/>
<feBlend mode="normal" in="SourceGraphic" in2="effect1_dropShadow_306_445" result="shape"/>
</filter>
</defs>
</svg>
