<svg width="16" height="15" viewBox="0 0 16 15" fill="none" xmlns="http://www.w3.org/2000/svg">
<path d="M3.27134 6.20117L1.41235 8.06016C0.649976 8.82253 0.22168 9.85653 0.22168 10.9347C0.22168 12.0128 0.649976 13.0468 1.41235 13.8092C2.17472 14.5716 3.20872 14.9999 4.28688 14.9999C5.36504 14.9999 6.39903 14.5716 7.16141 13.8092L9.63826 11.331C10.098 10.8712 10.4407 10.3079 10.6377 9.6882C10.8346 9.06854 10.88 8.41068 10.7701 7.76984C10.6602 7.129 10.3982 6.52387 10.006 6.00525C9.61387 5.48662 9.10302 5.06964 8.51636 4.78931L7.72236 5.58331C7.64175 5.66406 7.57164 5.75465 7.51369 5.85294C7.96696 5.98325 8.37838 6.22959 8.70726 6.56762C9.03615 6.90565 9.27112 7.32367 9.38895 7.78034C9.50678 8.23701 9.50338 8.71652 9.3791 9.17148C9.25482 9.62643 9.01395 10.0411 8.68031 10.3744L6.20481 12.8513C5.69632 13.3598 5.00667 13.6454 4.28756 13.6454C3.56845 13.6454 2.87879 13.3598 2.3703 12.8513C1.86181 12.3428 1.57615 11.6531 1.57615 10.934C1.57615 10.2149 1.86181 9.52524 2.3703 9.01675L3.44478 7.94363C3.29318 7.37554 3.23461 6.78664 3.27134 6.19981V6.20117Z" fill="white"/>
<path d="M5.80636 3.66752C5.34663 4.12731 5.00391 4.69068 4.80696 5.31033C4.61001 5.92999 4.56458 6.58785 4.67449 7.22869C4.78439 7.86954 5.04642 8.47466 5.43859 8.99329C5.83075 9.51191 6.3416 9.92889 6.92826 10.2092L7.97835 9.15778C7.51895 9.03456 7.10007 8.79259 6.76382 8.45619C6.42756 8.11979 6.18577 7.70082 6.06273 7.24137C5.9397 6.78192 5.93976 6.29818 6.06291 5.83876C6.18607 5.37934 6.42797 4.96043 6.76431 4.62412L9.23981 2.14726C9.7483 1.63878 10.438 1.35311 11.1571 1.35311C11.8762 1.35311 12.5658 1.63878 13.0743 2.14726C13.5828 2.65575 13.8685 3.34541 13.8685 4.06452C13.8685 4.78363 13.5828 5.47329 13.0743 5.98178L11.9998 7.0549C12.1516 7.62398 12.2099 8.21338 12.1733 8.79872L14.0323 6.93973C14.7946 6.17735 15.2229 5.14336 15.2229 4.0652C15.2229 2.98704 14.7946 1.95304 14.0323 1.19067C13.2699 0.428297 12.2359 0 11.1577 0C10.0796 0 9.04558 0.428297 8.28321 1.19067L5.80636 3.66752Z" fill="white"/>
</svg>
