<svg width="13" height="12" viewBox="0 0 13 12" fill="none" xmlns="http://www.w3.org/2000/svg">
<path fill-rule="evenodd" clip-rule="evenodd" d="M7.16536 1.39824L8.24031 3.54574C8.34566 3.75656 8.54901 3.90275 8.78483 3.93658L11.1895 4.28271C11.7837 4.36849 12.0201 5.08856 11.5901 5.50114L9.8512 7.17202C9.68031 7.33633 9.60252 7.57253 9.64295 7.80449L10.0533 10.1634C10.1544 10.747 9.53331 11.1922 9.00226 10.9161L6.85298 9.80158C6.64228 9.69224 6.38993 9.69224 6.17861 9.80158L4.02933 10.9161C3.49829 11.1922 2.87721 10.747 2.97888 10.1634L3.38865 7.80449C3.42907 7.57253 3.35128 7.33633 3.1804 7.17202L1.44149 5.50114C1.01151 5.08856 1.24794 4.36849 1.84207 4.28271L4.24677 3.93658C4.48258 3.90275 4.68655 3.75656 4.7919 3.54574L5.86623 1.39824C6.13206 0.867254 6.89953 0.867254 7.16536 1.39824Z" stroke="#023047" stroke-width="1.5" stroke-linecap="round" stroke-linejoin="round"/>
</svg>
