<svg width="15" height="14" viewBox="0 0 15 14" fill="none" xmlns="http://www.w3.org/2000/svg">
<path d="M6.95686 2.99329H5.46018V5.23831H3.21515V6.735H5.46018V8.98003H6.95686V6.735H9.20189V5.23831H6.95686V2.99329Z" fill="#023047"/>
<path d="M6.20842 0C2.90748 0 0.22168 2.6858 0.22168 5.98674C0.22168 9.28768 2.90748 11.9735 6.20842 11.9735C7.53671 11.9732 8.82673 11.5285 9.87306 10.7103L13.1628 14L14.2209 12.9418L10.9312 9.65213C11.7499 8.60569 12.1948 7.31538 12.1952 5.98674C12.1952 2.6858 9.50936 0 6.20842 0ZM6.20842 10.4768C3.73216 10.4768 1.71837 8.46301 1.71837 5.98674C1.71837 3.51048 3.73216 1.49669 6.20842 1.49669C8.68469 1.49669 10.6985 3.51048 10.6985 5.98674C10.6985 8.46301 8.68469 10.4768 6.20842 10.4768Z" fill="#023047"/>
</svg>
